<svg xmlns="http://www.w3.org/2000/svg" width="2126" height="318" viewBox="0 0 2126 318">
  <defs>
    <style>
      .cls-1 {
        fill: #00c2c2;
        fill-rule: evenodd;
      }
    </style>
  </defs>
  <path id="Ellipse_8_copy_15" data-name="Ellipse 8 copy 15" class="cls-1" d="M1992,278h-68a16,16,0,0,1-16-16V26a16,16,0,0,1,16-16h68A134,134,0,0,1,1992,278Zm0-236h-52V246h52A102,102,0,1,0,1992,42ZM1844.25,269.237c-0.2.394-.41,0.775-0.64,1.149-0.06.092-.11,0.186-0.17,0.277-0.2.309-.42,0.607-0.64,0.9-0.1.14-.2,0.282-0.31,0.42-0.2.246-.41,0.481-0.62,0.715-0.15.165-.29,0.333-0.45,0.493-0.19.2-.4,0.381-0.6,0.568-0.16.147-.31,0.3-0.47,0.444l-0.08.052a15.823,15.823,0,0,1-2.39,1.657c-0.11.064-.22,0.131-0.33,0.192a16.5,16.5,0,0,1-2.46,1.054c-0.18.059-.35,0.118-0.53,0.171a15.978,15.978,0,0,1-2.4.5c-0.18.024-.35,0.063-0.52,0.08A16.224,16.224,0,0,1,1830,278c-0.31,0-.61-0.03-0.91-0.047-0.18-.01-0.36-0.01-0.54-0.027a15.92,15.92,0,0,1-2.62-.469c-0.11-.029-0.22-0.054-0.33-0.086a15.785,15.785,0,0,1-2.67-1.033c-0.04-.022-0.09-0.043-0.13-0.065a16.122,16.122,0,0,1-5.54-4.617L1646,69.59V262a16,16,0,1,1-32,0V26a15.664,15.664,0,0,1,.59-4.245l0.03-.124c0.11-.41.25-0.812,0.4-1.208,0.04-.107.07-0.215,0.12-0.322,0.13-.329.27-0.648,0.42-0.965,0.08-.174.16-0.347,0.25-0.518,0.13-.247.27-0.485,0.41-0.724s0.27-.456.41-0.679c0.12-.176.24-0.346,0.37-0.517,0.19-.264.37-0.525,0.58-0.779,0.1-.124.21-0.242,0.31-0.363,0.24-.279.49-0.556,0.75-0.821,0.08-.081.17-0.156,0.25-0.236,0.24-.237.48-0.479,0.74-0.7,0.04-.032.09-0.051,0.12-0.082a15.833,15.833,0,0,1,2.29-1.582c0.16-.09.31-0.183,0.47-0.267a16.069,16.069,0,0,1,2.35-1.008c0.2-.065.39-0.132,0.58-0.19a16.141,16.141,0,0,1,2.4-.5c0.16-.023.33-0.06,0.5-0.077A16.213,16.213,0,0,1,1630,10c0.32,0,.63.029,0.94,0.048,0.16,0.01.31,0.009,0.46,0.024a15.829,15.829,0,0,1,2.73.488c0.07,0.019.14,0.034,0.21,0.053a15.968,15.968,0,0,1,8.51,5.891L1814,218.427V26a16,16,0,1,1,32,0V262a15.883,15.883,0,0,1-1.72,7.176A0.186,0.186,0,0,1,1844.25,269.237ZM1535.81,269l-26.61-55H1362.8l-26.62,55a15.852,15.852,0,0,1-21.27,7.384,16.075,16.075,0,0,1-7.33-21.433l113.3-234.111a15.931,15.931,0,0,1,8.08-9.216,15.717,15.717,0,0,1,6.35-1.6c0.23-.011.46,0,0.69,0s0.46-.008.68,0a15.722,15.722,0,0,1,6.36,1.6,15.931,15.931,0,0,1,8.08,9.216l113.3,234.111a16.084,16.084,0,0,1-7.33,21.433A15.866,15.866,0,0,1,1535.81,269ZM1436,62.748L1378.29,182h115.42ZM1250,278H1100a16,16,0,0,1-16-16V26a16,16,0,1,1,32,0V246h134A16,16,0,0,1,1250,278ZM994,152c17.012,12.575,28,32.068,28,52,0,40.869-43.192,74-94,74-30.587,0-57.651-12.03-74.378-30.5-5.591-6.712-8.041-17.3-1.621-23.5,6.357-6.137,17.948-4.439,24,2,10.469,12.284,30.081,20,52,20,33.138,0,60-18.8,60-42,0-10.071-6.926-19.374-15.564-27.716-17.54-16.94-61.62-23.288-92.367-42.481C858.091,120.083,848,100.189,848,79c0-38.108,40.295-69,90-69,27.461,0,51.491,9.134,68,24,4.52,4.56,7.54,16.079,3.1,21.865-5.04,6.573-13.333,6.772-17.1,6.135-1.976-.334-6.542-4.171-7.614-5.145C973.805,47.851,956.994,42,938,42c-32.034,0-56,16.565-56,37,0,12.122,7.306,24.544,21.26,31.631C944.122,131.387,960.661,127.348,994,152Zm-218,0c17.007,12.575,28,32.068,28,52,0,40.869-43.19,74-94,74-30.587,0-57.652-12.03-74.378-30.5-5.591-6.712-8.041-17.3-1.621-23.5,6.358-6.137,17.948-4.439,24,2,10.47,12.284,30.081,20,52,20,33.137,0,60-18.8,60-42,0-10.071-6.926-19.374-15.564-27.716-17.54-16.94-61.62-23.288-92.367-42.481C640.091,120.083,630,100.189,630,79c0-38.108,40.295-69,90-69,27.461,0,51.492,9.134,68,24,4.521,4.56,7.538,16.079,3.1,21.865C786.057,62.437,777.767,62.637,774,62c-1.976-.334-6.542-4.171-7.614-5.145C755.805,47.851,738.994,42,720,42c-32.032,0-56,16.565-56,37,0,12.122,7.306,24.544,21.26,31.631C726.122,131.387,742.661,127.348,776,152ZM456,278A134,134,0,1,1,590,144,134,134,0,0,1,456,278Zm0-236A102,102,0,1,0,558,144,102,102,0,0,0,456,42ZM260,264.009a16.025,16.025,0,0,1-16-16.049V59.821l-90.049,116.61a15.97,15.97,0,0,1-4.2,4.9,15.627,15.627,0,0,1-7.262,3.047c-0.265.045-.525,0.094-0.791,0.125a22.2,22.2,0,0,1-3.4,0c-0.266-.031-0.526-0.08-0.791-0.125a15.627,15.627,0,0,1-7.262-3.047,15.953,15.953,0,0,1-4.2-4.9L36,59.821V247.96a16,16,0,1,1-32,0V17.848H4.009A18.021,18.021,0,0,1,22,0c6.441,0,11.608,3.75,15.257,8.507L140,141.927,242.742,8.506C246.319,3.685,251.557,0,258,0a18.021,18.021,0,0,1,17.989,17.844H276V247.96A16.024,16.024,0,0,1,260,264.009ZM264,318H16a16,16,0,1,1,0-32H264A16,16,0,1,1,264,318Z"/>
</svg>
