<svg xmlns="http://www.w3.org/2000/svg" width="858" height="920" viewBox="0 0 858 920">
  <defs>
    <style>
      .cls-1 {
        fill: #f6f6f6;
        fill-rule: evenodd;
      }
    </style>
  </defs>
  <path id="Ellipse_8_copy_33" data-name="Ellipse 8 copy 33" class="cls-1" d="M756.585,769.616a93.527,93.527,0,0,1-93.6-93.453V356.916L504.733,562.987a92.571,92.571,0,0,1-73,36.1h0c-0.919.008-1.833,0.118-2.753,0.1-0.92.019-1.833-.091-2.753-0.1h0a92.566,92.566,0,0,1-73-36.1L194.974,356.916V676.163a93.6,93.6,0,0,1-187.2,0V98.95C7.769,44.3,46.635,0,101.371,0c55.041,0,77.8,31.416,89.905,47.185,168.642,219.656,223.09,290.522,234.949,305.953v0l2.753,3.585,2.753-3.585v0c11.86-15.431,66.309-86.3,234.95-305.953C678.789,31.415,701.545,0,756.585,0c54.736,0,93.6,44.3,93.6,98.951V676.163A93.528,93.528,0,0,1,756.585,769.616ZM834.616,920H23.371C7.947,920,0,912.3,0,899.2,0,865.4,195,771.821,427.694,771.821c235.25,0,430.3,93.881,430.3,127.383C857.992,912.158,850.133,920,834.616,920Z"/>
</svg>
