<?xml version="1.0" encoding="utf-8"?>
<!-- Generator: Adobe Illustrator 24.0.0, SVG Export Plug-In . SVG Version: 6.00 Build 0)  -->
<svg version="1.1" id="Layer_1" xmlns="http://www.w3.org/2000/svg" xmlns:xlink="http://www.w3.org/1999/xlink" x="0px" y="0px"
	 viewBox="0 0 104.7 20.8" style="enable-background:new 0 0 104.7 20.8;" xml:space="preserve">
<style type="text/css">
	.st0{fill-rule:evenodd;clip-rule:evenodd;fill:#0A0A0A;}
</style>
<path class="st0" d="M60.4,8.4c0.2-0.1,0.4-0.3,0.5-0.5l0.8-1.4c0.1-0.1,0.1-0.2,0.1-0.4c0,0,0-0.1,0-0.1s-0.1-0.1-0.1-0.1
	c0,0-0.1-0.1-0.1-0.1c-0.1,0-0.1,0-0.2,0h-9.5c-0.2,0-0.4,0.1-0.6,0.2C51,6,50.9,6.2,50.8,6.4l-3.5,6.4c-0.1,0.1-0.1,0.2-0.1,0.4
	c0,0.2,0.1,0.4,0.4,0.4h3.4c0.2,0,0.4-0.1,0.6-0.2c0.2-0.1,0.4-0.3,0.5-0.5l3.2-5.7c0.1-0.2,0.3-0.4,0.5-0.5
	c0.2-0.1,0.4-0.2,0.6-0.2c0.1,0,0.1,0,0.2,0c0.1,0,0.1,0,0.1,0.1c0,0,0.1,0.1,0.1,0.1c0,0,0,0.1,0,0.1c0,0.1,0,0.3-0.1,0.4l-0.4,0.7
	C56,8,56,8.1,56,8.2c0,0.2,0.1,0.4,0.4,0.4h3.4C60,8.6,60.2,8.5,60.4,8.4z M79.6,6.1c0-0.2-0.1-0.4-0.4-0.4h-4.8
	c-0.3,0-0.4-0.1-0.4-0.3c0.1-0.3,0.2-0.5,0.3-0.8c0.1-0.2,0.2-0.5,0.2-0.7c0-0.1,0-0.3-0.1-0.4l-1.9-3.4c0,0-0.1-0.1-0.1-0.1
	c0,0-0.1,0-0.1,0c-0.2,0-0.3,0.1-0.5,0.6L65,13c0,0.1,0,0.1,0,0.2c0,0.2,0.1,0.4,0.4,0.4h3.4c0.2,0,0.4-0.1,0.6-0.2
	c0.2-0.1,0.4-0.3,0.5-0.5L73,7.1c0.1-0.2,0.3-0.4,0.5-0.5c0.2-0.1,0.4-0.2,0.6-0.2c0.3,0,0.4,0.1,0.4,0.4c0,0.1-0.1,0.3-0.1,0.4
	l-3.1,5.7c-0.1,0.1-0.1,0.2-0.1,0.4c0,0.2,0.1,0.4,0.4,0.4h3.4c0.2,0,0.4-0.1,0.6-0.2c0.2-0.1,0.4-0.3,0.5-0.5l3.5-6.4
	C79.6,6.3,79.6,6.2,79.6,6.1L79.6,6.1z M68.2,4.7h0.6c0.1,0,0.2,0,0.3-0.1c0.1-0.1,0.2-0.1,0.2-0.2l0.6-1.1C70,3,70,2.9,69.8,2.9
	h-0.6c0,0,0,0-0.1,0c0,0,0,0,0,0c0,0,0,0,0,0c0,0,0,0,0,0l0.3-0.6c0.1-0.1,0.1-0.2,0.1-0.4c0-0.1,0-0.1,0-0.1c0-0.1-0.1-0.1-0.1-0.1
	c0,0-0.1-0.1-0.1-0.1c-0.1,0-0.1,0-0.2,0h-3.4c-0.2,0-0.4,0.1-0.6,0.2c-0.2,0.1-0.4,0.3-0.5,0.5l-0.4,0.7c0,0-0.1,0.1-0.1,0.1
	c0,0-0.1,0-0.1,0h-5.4c-0.1,0-0.2,0-0.3,0.1c-0.1,0.1-0.2,0.1-0.2,0.2c0,0-0.3,0.5-0.3,0.6c0,0,0,0.1,0,0.1s0,0.1,0,0.1
	c0,0,0,0.1,0.1,0.1s0.1,0,0.1,0H65c0,0,0.1,0,0.1,0s0.1,0,0.1,0.1s0,0.1,0,0.1s0,0.1,0,0.1L64.9,5c0,0.1-0.1,0.1-0.1,0.1
	c-0.1,0-0.1,0-0.2,0h-1.1c-0.4,0-0.5,0.1-0.7,0.5c-0.2,0.4-3.9,7.2-3.9,7.2c-0.1,0.2-0.2,0.5-0.2,0.8c0,0.1,0,0.3,0.1,0.4l1.9,3.4
	c0,0,0.1,0.1,0.1,0.1c0,0,0.1,0,0.1,0c0.2,0,0.3-0.1,0.4-0.4L68,4.8C68,4.8,68.1,4.7,68.2,4.7C68.1,4.7,68.2,4.7,68.2,4.7L68.2,4.7z
	 M91.4,6.1c0-0.2-0.1-0.4-0.4-0.4h-3.4c-0.2,0-0.4,0.1-0.6,0.2c-0.2,0.1-0.4,0.3-0.5,0.5l-3.1,5.7c-0.1,0.2-0.3,0.4-0.5,0.5
	c-0.2,0.1-0.4,0.2-0.6,0.2c-0.3,0-0.4-0.1-0.4-0.4c0-0.1,0.1-0.3,0.1-0.4l3.4-6.3c0.1-0.1,0.1-0.2,0.1-0.4c0-0.2-0.1-0.4-0.4-0.4
	h-3.5c-0.5,0-0.8,0.3-1,0.7c-0.1,0.3-0.1,0.4,0.2,0.4h1.6c0.1,0,0.2,0.1,0.1,0.3l-0.2,0.4c0,0.1-0.1,0.1-0.2,0.2
	c-0.1,0-0.2,0.1-0.2,0.1h-1.6c-0.1,0-0.3,0-0.4,0.1s-0.2,0.2-0.3,0.3l-2.9,5.3c-0.1,0.1-0.1,0.2-0.1,0.4c0,0,0,0.1,0,0.1
	s0.1,0.1,0.1,0.1c0,0,0.1,0.1,0.1,0.1c0.1,0,0.1,0,0.2,0h9.5c0.2,0,0.4-0.1,0.6-0.2c0.2-0.1,0.4-0.3,0.5-0.5l3.5-6.4
	C91.3,6.3,91.3,6.2,91.4,6.1L91.4,6.1z M47.3,11.1c0,0,0-0.1,0-0.1s-0.1-0.1-0.1-0.1c0,0-0.1-0.1-0.1-0.1c-0.1,0-0.1,0-0.2,0h-3.4
	c-0.2,0-0.4,0.1-0.6,0.2c-0.2,0.1-0.4,0.3-0.5,0.5L42,12.2c-0.1,0.2-0.3,0.4-0.5,0.5c-0.2,0.1-0.4,0.2-0.6,0.2c-0.1,0-0.1,0-0.2,0
	c-0.1,0-0.1,0-0.1-0.1c0,0-0.1-0.1-0.1-0.1c0,0,0-0.1,0-0.1c0-0.1,0-0.3,0.1-0.4l0.8-1.4c0.1-0.2,0.3-0.4,0.5-0.5
	c0.2-0.1,0.4-0.2,0.6-0.2h4.8c0.2,0,0.4-0.1,0.6-0.2c0.2-0.1,0.4-0.3,0.5-0.5l1.6-2.9C50,6.3,50,6.2,50,6.1c0,0,0-0.1,0-0.1
	S50,5.8,49.9,5.8c0,0-0.1-0.1-0.1-0.1c-0.1,0-0.1,0-0.2,0h-9.1c-0.1,0-0.2,0-0.3,0.1c-0.1,0-0.1,0.1-0.2,0.2L40,6.3c0,0,0,0,0,0.1
	c0,0,0,0,0,0.1c0,0,0,0,0.1,0c0,0,0,0,0.1,0h1.1c0.1,0,0.2,0.1,0.1,0.3l-0.3,0.6c0,0.1-0.1,0.1-0.2,0.2c-0.1,0-0.2,0.1-0.2,0.1H39
	c-0.2,0-0.4,0.1-0.6,0.2C38.3,8,38.1,8.1,38,8.3l-2.5,4.6c-0.1,0.1-0.1,0.2-0.1,0.4c0,0.2,0.1,0.4,0.4,0.4h9.5
	c0.2,0,0.4-0.1,0.6-0.2c0.2-0.1,0.4-0.3,0.5-0.5l0.8-1.4C47.2,11.3,47.3,11.2,47.3,11.1L47.3,11.1z M42.6,8.6l0.8-1.4
	c0.1-0.2,0.3-0.4,0.5-0.5c0.2-0.1,0.4-0.2,0.6-0.2c0.1,0,0.1,0,0.2,0c0.1,0,0.1,0,0.1,0.1c0,0,0.1,0.1,0.1,0.1c0,0,0,0.1,0,0.1
	c0,0.1,0,0.3-0.1,0.4l-0.8,1.4c-0.1,0.2-0.3,0.4-0.5,0.5c-0.2,0.1-0.4,0.2-0.6,0.2c-0.3,0-0.4-0.1-0.4-0.4
	C42.5,8.8,42.5,8.7,42.6,8.6z M38.3,6.1c0,0,0-0.1,0-0.1s-0.1-0.1-0.1-0.1c0,0-0.1-0.1-0.1-0.1c-0.1,0-0.1,0-0.2,0h-4.8
	c-0.3,0-0.4-0.1-0.4-0.3c0.1-0.3,0.2-0.5,0.3-0.8c0.1-0.2,0.2-0.5,0.2-0.7c0-0.1,0-0.3-0.1-0.4l-1.9-3.4c0,0,0-0.1-0.1-0.1
	c0,0-0.1,0-0.1,0c-0.2,0-0.3,0.1-0.4,0.4l-6.8,12.5c-0.1,0.1-0.1,0.2-0.1,0.4c0,0.2,0.1,0.4,0.4,0.4h9.5c0.2,0,0.4-0.1,0.6-0.2
	c0.2-0.1,0.4-0.3,0.5-0.5l3.5-6.4C38.3,6.3,38.3,6.2,38.3,6.1z M33,7.1l-2.7,5c-0.1,0.2-0.3,0.4-0.5,0.5c-0.2,0.1-0.4,0.2-0.6,0.2
	c0,0-0.1,0-0.2,0c0,0-0.1,0-0.1-0.1c0,0-0.1-0.1-0.1-0.1c0,0,0-0.1,0-0.1c0-0.1,0-0.3,0.1-0.4l2.8-5c0.1-0.2,0.3-0.4,0.5-0.5
	c0.2-0.1,0.4-0.2,0.6-0.2c0.1,0,0.1,0,0.2,0c0.1,0,0.1,0,0.1,0.1s0.1,0.1,0.1,0.1c0,0,0,0.1,0,0.1C33.1,6.9,33.1,7,33,7.1z
	 M20.5,14.7c0,0,0.1-0.1,0.1-0.1c0,0,0.1,0,0.1,0l1.2,0c0,0,0.1,0,0.1,0c0,0,0.1-0.1,0.1-0.1l4.4-8c0.1-0.1,0.1-0.2,0.1-0.4
	c0,0,0-0.1,0-0.1s0-0.1-0.1-0.1c0,0-0.1-0.1-0.1-0.1s-0.1,0-0.2,0h-3.4c-0.2,0-0.4,0.1-0.6,0.2C22,6,21.9,6.2,21.8,6.4l-3.2,5.7
	c-0.1,0.2-0.3,0.4-0.5,0.5c-0.2,0.1-0.4,0.2-0.6,0.2c0,0-0.1,0-0.2,0c0,0-0.1,0-0.1-0.1c0,0-0.1-0.1-0.1-0.1c0,0,0-0.1,0-0.1
	c0-0.1,0-0.3,0.1-0.4l3.2-5.7c0.1-0.1,0.1-0.2,0.1-0.4c0,0,0-0.1,0-0.1s0-0.1-0.1-0.1c0,0-0.1-0.1-0.1-0.1s-0.1,0-0.2,0h-2.5
	c-0.1,0-0.3,0-0.4,0.1S17.1,6,17,6.1c-0.3,0.5-0.7,1.2-0.7,1.2c0,0.1-0.1,0.2-0.2,0.2c-0.1,0-0.2,0.1-0.3,0.1H13c-0.1,0-0.1,0-0.2,0
	c0,0-0.1,0.1-0.1,0.1L12.6,8c0,0,0,0,0,0.1c0,0,0,0,0,0.1c0,0,0,0,0,0c0,0,0,0,0.1,0h1.6c0,0,0.1,0,0.1,0c0,0,0.1,0.1,0.1,0.1
	s0,0.1,0,0.1s0,0.1,0,0.1l-2.3,4.3C12,13,12,13.1,12,13.2c0,0.2,0.1,0.4,0.4,0.4h4.8c0.3,0,0.4,0.1,0.4,0.3c0,0.1,0,0.2-0.1,0.3
	c-0.2,0.4-1.1,1.9-1.1,2c-0.1,0.2-0.2,0.5-0.2,0.7c0,0.1,0,0.3,0.1,0.4l1.9,3.4c0,0,0,0.1,0.1,0.1c0,0,0.1,0,0.1,0
	c0.2,0,0.3-0.1,0.5-0.4l2.5-4.6c0,0,0.1-0.1,0.1-0.1c0,0,0.1,0,0.1,0h1.5c0.1,0,0.1,0,0.2-0.1c0,0,0.1-0.1,0.1-0.1l0.1-0.2
	c0.1-0.1,0-0.2-0.1-0.2h-2.1l0,0l-0.8,0c-0.1,0-0.1-0.1-0.1-0.1L20.5,14.7z M104.6,7.8l-2.2,0c0,0,0,0-0.1,0s0,0,0,0c0,0,0,0,0-0.1
	c0,0,0,0,0-0.1l0.7-1.2c0.1-0.1,0.1-0.2,0.1-0.4c0-0.2-0.1-0.4-0.4-0.4h-9.5c-0.2,0-0.4,0.1-0.6,0.2c-0.2,0.1-0.4,0.3-0.5,0.5
	l-3.5,6.4c-0.1,0.1-0.1,0.2-0.1,0.4c0,0,0,0.1,0,0.1s0.1,0.1,0.1,0.1c0,0,0.1,0.1,0.1,0.1c0.1,0,0.1,0,0.2,0h4.8
	c0.3,0,0.4,0.1,0.4,0.3c0,0.1,0,0.2-0.1,0.3c-0.1,0.2-0.2,0.4-0.2,0.7c0,0.1,0,0.3,0.1,0.4l1.9,3.3c0,0,0.1,0.1,0.1,0.1s0.1,0,0.1,0
	c0.2,0,0.3-0.1,0.4-0.4l3.1-5.6c0-0.1,0.1-0.1,0.1-0.1s0.1,0,0.2,0h0.9c0.1,0,0.1,0,0.2-0.1c0.1,0,0.1-0.1,0.1-0.1l0.2-0.3
	c0.1-0.1,0-0.2-0.1-0.2h-1c0,0,0,0-0.1,0s0,0,0,0s0,0,0-0.1c0,0,0,0,0-0.1L101,10c0.1-0.1,0.1-0.2,0.1-0.4c0,0,0-0.1,0-0.1
	S101,9.4,101,9.4s-0.1-0.1-0.1-0.1s-0.1,0-0.1,0h-3.4c-0.2,0-0.4,0.1-0.6,0.2c-0.2,0.1-0.4,0.3-0.5,0.5L95,12.1
	c-0.1,0.2-0.3,0.4-0.5,0.5c-0.2,0.1-0.4,0.2-0.6,0.2c-0.3,0-0.4-0.1-0.4-0.4c0-0.1,0.1-0.3,0.1-0.4l2.7-5c0.1-0.2,0.3-0.4,0.5-0.5
	c0.2-0.1,0.4-0.2,0.6-0.2c0.1,0,0.1,0,0.1,0c0.1,0,0.1,0,0.1,0.1c0,0,0.1,0.1,0.1,0.1c0,0,0,0.1,0,0.1c0,0.1,0,0.3-0.1,0.4l-0.4,0.7
	c-0.1,0.1-0.1,0.2-0.1,0.4c0,0,0,0.1,0,0.1s0.1,0.1,0.1,0.1s0.1,0.1,0.1,0.1s0.1,0,0.1,0h6.5c0.1,0,0.1,0,0.2-0.1
	c0.1,0,0.1-0.1,0.1-0.1l0.2-0.3C104.7,7.9,104.7,7.8,104.6,7.8z M15.4,4.2H5.8c-0.2,0-0.4,0.1-0.6,0.2C5,4.5,4.9,4.7,4.8,4.9
	L4.3,5.7c0,0,0,0,0,0.1c0,0,0,0,0,0.1c0,0,0,0,0,0c0,0,0,0,0.1,0h2.3c0.1,0,0.2,0.1,0.1,0.3L6.5,6.7c0,0.1-0.1,0.1-0.2,0.2
	S6.2,6.9,6.2,6.9H0.6C0.6,6.9,0.5,7,0.5,7C0.4,7,0.3,7.1,0.3,7.1L0,7.6C0,7.7,0,7.8,0.1,7.8h2.8c0,0,0,0,0.1,0s0,0,0,0.1
	c0,0,0,0,0,0.1s0,0,0,0.1l-2.6,4.8c-0.1,0.1-0.1,0.2-0.1,0.4c0,0.2,0.1,0.4,0.4,0.4h9.5c0.2,0,0.4-0.1,0.6-0.2
	c0.2-0.1,0.4-0.3,0.5-0.5l1.6-2.9c0.1-0.1,0.1-0.2,0.1-0.4c0-0.2-0.1-0.4-0.4-0.4H9.1c-0.2,0-0.4,0.1-0.6,0.2C8.3,9.6,8.2,9.8,8,10
	l-1.2,2.1c-0.1,0.2-0.3,0.4-0.5,0.5c-0.2,0.1-0.4,0.2-0.6,0.2c0,0-0.1,0-0.2,0c0,0-0.1,0-0.1-0.1c0,0-0.1-0.1-0.1-0.1
	c0,0,0-0.1,0-0.1c0-0.1,0-0.3,0.1-0.4l3.6-6.6c0.1-0.2,0.3-0.4,0.5-0.5C9.8,5,10,4.9,10.2,4.9c0,0,0.1,0,0.2,0c0,0,0.1,0,0.1,0.1
	c0,0,0.1,0.1,0.1,0.1c0,0,0,0.1,0,0.1c0,0.1,0,0.3-0.1,0.4l-0.4,0.7C10,6.4,10,6.6,10,6.7c0,0.2,0.1,0.4,0.4,0.4h3.4
	C14,7,14.2,7,14.3,6.9c0.2-0.1,0.4-0.3,0.5-0.5l0.8-1.4c0.1-0.1,0.1-0.2,0.1-0.4c0,0,0-0.1,0-0.1s0-0.1-0.1-0.1c0,0-0.1-0.1-0.1-0.1
	C15.5,4.2,15.4,4.2,15.4,4.2z"/>
</svg>
