<svg width="190" height="38" viewBox="0 0 190 38" fill="none" xmlns="http://www.w3.org/2000/svg">
<g clip-path="url(#clip0_13_130)">
<path fill-rule="evenodd" clip-rule="evenodd" d="M109.52 15.3209C109.879 15.0979 110.176 14.7809 110.382 14.4012L111.822 11.8048C111.932 11.6073 111.993 11.3843 112.002 11.1557C112.009 11.0615 111.995 10.9668 111.962 10.879C111.928 10.7913 111.876 10.7129 111.809 10.6499C111.741 10.587 111.661 10.5413 111.574 10.5165C111.487 10.4916 111.395 10.4882 111.307 10.5066H94.0261C93.6351 10.5227 93.2563 10.6541 92.9334 10.8855C92.575 11.1087 92.2781 11.4256 92.0718 11.8052L85.6441 23.489C85.5341 23.6866 85.4724 23.9096 85.4644 24.1381C85.4644 24.5709 85.7039 24.7872 86.1827 24.7872H92.3421C92.7241 24.7675 93.0931 24.6351 93.4065 24.4055C93.764 24.1797 94.0595 23.8608 94.2642 23.4797L99.9888 13.1022C100.207 12.7282 100.507 12.4134 100.863 12.1833C101.182 11.9515 101.557 11.8202 101.945 11.8052C102.033 11.7869 102.124 11.7903 102.211 11.8152C102.298 11.8401 102.379 11.8858 102.446 11.9487C102.513 12.0116 102.566 12.09 102.599 12.1778C102.633 12.2655 102.646 12.3602 102.639 12.4543C102.631 12.6829 102.569 12.9059 102.459 13.1034L101.739 14.4016C101.629 14.5991 101.567 14.8221 101.559 15.0507C101.559 15.4835 101.799 15.6998 102.279 15.6998H108.45C108.833 15.6813 109.204 15.55 109.52 15.3209ZM144.513 11.1553C144.513 10.7226 144.273 10.5062 143.792 10.5062H135.151C134.637 10.5062 134.38 10.2989 134.38 9.88429C134.543 9.40018 134.747 8.9322 134.989 8.48588C135.195 8.10698 135.302 7.67774 135.299 7.24164C135.31 6.9881 135.257 6.73593 135.144 6.5114L131.723 0.396062C131.692 0.323637 131.641 0.262204 131.577 0.219057C131.513 0.17591 131.439 0.152862 131.363 0.152649C131.071 0.152649 130.797 0.387137 130.382 1.15348L118 23.7828C117.97 23.8992 117.953 24.0188 117.95 24.1394C117.95 24.5721 118.19 24.7885 118.67 24.7885H124.845C125.232 24.7736 125.607 24.6425 125.925 24.4108C126.281 24.1806 126.581 23.866 126.8 23.4923L132.482 13.1067C132.7 12.732 132.999 12.4164 133.355 12.1854C133.672 11.9527 134.046 11.8209 134.432 11.8056C134.912 11.8056 135.152 12.022 135.153 12.4547C135.142 12.6868 135.071 12.9114 134.947 13.1038L129.264 23.4894C129.14 23.6819 129.069 23.9065 129.058 24.1385C129.058 24.5713 129.298 24.7876 129.778 24.7876H135.949C136.337 24.7729 136.712 24.6415 137.03 24.4091C137.386 24.1787 137.685 23.8637 137.904 23.4894L144.306 11.8056C144.431 11.6129 144.502 11.3878 144.511 11.1553H144.513ZM123.746 8.61002H124.859C125.056 8.58914 125.245 8.51962 125.411 8.40719C125.577 8.29476 125.715 8.14264 125.814 7.96336L126.88 5.97549C127.071 5.61848 126.954 5.32882 126.618 5.32882H125.561C125.532 5.32866 125.504 5.32055 125.479 5.30528C125.454 5.29001 125.433 5.26813 125.419 5.24182C125.404 5.2155 125.397 5.18567 125.396 5.15531C125.396 5.12495 125.404 5.09511 125.418 5.06878L126.058 3.90323C126.168 3.70567 126.23 3.48272 126.238 3.25413C126.245 3.15997 126.232 3.0653 126.198 2.97758C126.165 2.88985 126.112 2.81145 126.045 2.74855C125.978 2.68564 125.897 2.63994 125.81 2.61504C125.723 2.59014 125.632 2.58671 125.544 2.60503H119.371C118.98 2.62114 118.601 2.75247 118.278 2.98394C117.92 3.20716 117.623 3.52407 117.416 3.90364L116.758 5.10204C116.72 5.17091 116.666 5.22814 116.601 5.26795C116.535 5.30777 116.461 5.32877 116.385 5.32882H106.616C106.42 5.34964 106.231 5.41913 106.065 5.53157C105.899 5.644 105.761 5.79616 105.662 5.97549C105.662 5.97549 105.115 6.97794 105.021 7.15685C104.986 7.21035 104.967 7.27279 104.964 7.33733C104.961 7.40187 104.975 7.46602 105.004 7.52272C105.034 7.57943 105.078 7.62651 105.131 7.6588C105.185 7.69108 105.245 7.70733 105.307 7.70575H117.898C117.961 7.70383 118.023 7.72087 118.077 7.75484C118.131 7.7888 118.174 7.83826 118.202 7.89734C118.23 7.95641 118.241 8.0226 118.234 8.08803C118.227 8.15346 118.202 8.21538 118.162 8.26641L117.667 9.20192C117.611 9.31272 117.527 9.40497 117.424 9.46822C117.321 9.53147 117.203 9.56318 117.083 9.55974H115.174C114.395 9.55974 114.235 9.69524 113.849 10.3983C113.463 11.1014 106.682 23.5154 106.682 23.5154C106.427 23.9555 106.293 24.461 106.295 24.9759C106.287 25.2119 106.341 25.4456 106.45 25.6522L109.845 31.7375C109.88 31.8154 109.934 31.8819 110.002 31.9296C110.071 31.9773 110.15 32.0045 110.232 32.0081C110.523 32.0081 110.797 31.7737 111.054 31.305L123.351 8.85019C123.391 8.77764 123.448 8.7173 123.517 8.67518C123.587 8.63305 123.665 8.61059 123.745 8.61002H123.746ZM165.752 11.1553C165.752 10.7226 165.512 10.5062 165.031 10.5062H158.859C158.471 10.5212 158.096 10.6527 157.779 10.8851C157.422 11.1157 157.123 11.4308 156.905 11.8048L151.223 22.1916C151.005 22.5659 150.705 22.881 150.349 23.1113C150.031 23.3438 149.656 23.4752 149.269 23.4898C148.789 23.4898 148.549 23.2735 148.549 22.8407C148.559 22.6081 148.632 22.3831 148.758 22.1916L155.026 10.7192C155.148 10.5258 155.217 10.3015 155.227 10.0701C155.227 9.63736 154.987 9.42099 154.507 9.42099H148.147C147.166 9.42099 146.76 9.95934 146.381 10.7192C146.138 11.206 146.289 11.4178 146.671 11.4178H149.602C149.863 11.4178 149.956 11.6405 149.81 11.9156L149.407 12.677C149.331 12.8155 149.224 12.9329 149.096 13.0195C148.967 13.1061 148.821 13.1593 148.669 13.1748H145.815C145.578 13.175 145.345 13.2408 145.14 13.3654C144.935 13.4901 144.765 13.6692 144.647 13.8848L139.393 23.4903C139.283 23.6878 139.222 23.9108 139.214 24.1394C139.206 24.2336 139.219 24.3285 139.252 24.4164C139.286 24.5043 139.338 24.5829 139.405 24.6459C139.473 24.709 139.553 24.7546 139.64 24.7794C139.728 24.8041 139.819 24.8072 139.908 24.7885H157.186C157.577 24.7726 157.956 24.6414 158.279 24.4099C158.638 24.1869 158.934 23.87 159.14 23.4903L165.543 11.8064C165.668 11.6136 165.74 11.3882 165.75 11.1553H165.752ZM85.7696 20.2427C85.7769 20.1485 85.7633 20.0538 85.7298 19.966C85.6963 19.8783 85.6438 19.7999 85.5765 19.7369C85.5092 19.674 85.4288 19.6283 85.3418 19.6035C85.2548 19.5786 85.1634 19.5752 85.0749 19.5936H78.9024C78.5113 19.6097 78.1325 19.7409 77.8093 19.9721C77.4509 20.1952 77.1542 20.5122 76.9481 20.8918L76.2283 22.19C76.0221 22.5697 75.7252 22.8866 75.3667 23.1097C75.0438 23.3411 74.665 23.4723 74.274 23.4882C74.185 23.5062 74.0932 23.5022 74.0058 23.4767C73.9185 23.4511 73.838 23.4047 73.7707 23.341C73.7034 23.2774 73.6511 23.1982 73.618 23.1098C73.5849 23.0213 73.5718 22.9261 73.5798 22.8314C73.5858 22.6035 73.6386 22.3796 73.7346 22.175L75.1766 19.5879C75.381 19.212 75.6734 18.8968 76.0262 18.6719C76.3449 18.4402 76.7204 18.3091 77.108 18.2942H85.7599C86.1514 18.2784 86.5306 18.1472 86.8541 17.9157C87.213 17.6926 87.5104 17.3757 87.7172 16.996L90.5752 11.8032C90.6856 11.6057 90.7476 11.3827 90.7557 11.1541C90.763 11.0599 90.7494 10.9653 90.7159 10.8775C90.6825 10.7898 90.63 10.7114 90.5627 10.6485C90.4955 10.5856 90.4152 10.5399 90.3282 10.515C90.2412 10.4901 90.1499 10.4867 90.0614 10.505H73.5933C73.4282 10.5051 73.2662 10.5518 73.1242 10.6401C72.9822 10.7284 72.8655 10.855 72.7864 11.0068L72.5029 11.5484C72.4819 11.5885 72.4712 11.6336 72.4719 11.6793C72.4725 11.725 72.4845 11.7698 72.5066 11.8092C72.5288 11.8486 72.5603 11.8813 72.5982 11.9041C72.636 11.9268 72.6788 11.9389 72.7225 11.9391H74.6252C74.8866 11.9391 74.9819 12.1618 74.8378 12.4369L74.2419 13.5967C74.1669 13.7351 74.0612 13.8526 73.9338 13.9392C73.8063 14.0259 73.6609 14.0791 73.5097 14.0945H70.7899C70.4183 14.0949 70.0534 14.1978 69.7318 14.3928C69.4102 14.5879 69.1433 14.8682 68.958 15.2057L64.3998 23.4903C64.2897 23.6878 64.2278 23.9108 64.2197 24.1394C64.2197 24.5721 64.4598 24.7885 64.9399 24.7885H82.2192C82.6019 24.7694 82.9717 24.6382 83.2868 24.4099C83.6452 24.1869 83.9419 23.87 84.1479 23.4903L85.588 20.8938C85.698 20.6961 85.7599 20.4731 85.768 20.2443L85.7696 20.2427ZM77.2594 15.6828L78.6921 13.0977C78.9115 12.7244 79.2119 12.4106 79.5688 12.1817C79.8884 11.9501 80.2646 11.8192 80.653 11.8044C80.7416 11.7859 80.8331 11.7891 80.9203 11.8139C81.0076 11.8386 81.0881 11.8843 81.1557 11.9472C81.2232 12.0101 81.2759 12.0885 81.3096 12.1764C81.3433 12.2643 81.3571 12.3591 81.3499 12.4535C81.3418 12.6821 81.2799 12.905 81.1699 13.1026L79.7554 15.699C79.5371 16.0732 79.2377 16.3883 78.8815 16.6187C78.5636 16.851 78.1885 16.9824 77.8011 16.9972C77.3215 16.9972 77.0816 16.778 77.0813 16.3396C77.0891 16.1088 77.1503 15.8834 77.2594 15.6828ZM69.5098 11.1553C69.5176 11.0611 69.5043 10.9662 69.471 10.8783C69.4377 10.7903 69.3853 10.7117 69.318 10.6487C69.2506 10.5857 69.1702 10.54 69.083 10.5153C68.9959 10.4905 68.9044 10.4874 68.8159 10.5062H60.1761C59.6613 10.5062 59.4041 10.2989 59.4043 9.88429C59.5676 9.40032 59.7713 8.93237 60.013 8.48588C60.2191 8.10698 60.326 7.67774 60.3228 7.24164C60.3344 6.9881 60.2809 6.73593 60.1679 6.5114L56.7477 0.396062C56.7091 0.323582 56.653 0.262969 56.5851 0.220261C56.5171 0.177553 56.4397 0.154242 56.3605 0.152649C56.0863 0.152649 55.8207 0.387137 55.5636 0.856112L43.1523 23.4903C43.0422 23.6878 42.9804 23.9108 42.9722 24.1394C42.9722 24.5721 43.2123 24.7885 43.6925 24.7885H60.9718C61.3543 24.7694 61.724 24.6383 62.0389 24.4099C62.3974 24.1868 62.6942 23.8699 62.9005 23.4903L69.3282 11.8064C69.4391 11.6084 69.5015 11.3847 69.5098 11.1553ZM59.9701 13.1026L54.982 22.19C54.7759 22.5698 54.479 22.8867 54.1204 23.1097C53.7974 23.3412 53.4185 23.4724 53.0274 23.4882C52.9388 23.5071 52.8473 23.504 52.7601 23.4793C52.6729 23.4546 52.5924 23.4089 52.525 23.3459C52.4576 23.2829 52.4052 23.2043 52.3718 23.1163C52.3385 23.0283 52.3253 22.9334 52.3331 22.8391C52.3412 22.61 52.4045 22.3867 52.517 22.19L57.5051 13.1026C57.7229 12.7281 58.0219 12.4126 58.3778 12.1817C58.6951 11.9492 59.0697 11.8175 59.4566 11.8024C59.5451 11.7837 59.6365 11.7868 59.7236 11.8116C59.8107 11.8364 59.8911 11.8821 59.9584 11.9451C60.0257 12.0081 60.0781 12.0867 60.1114 12.1746C60.1446 12.2625 60.1579 12.3573 60.1501 12.4515C60.1424 12.6808 60.0806 12.9045 59.9701 13.1026ZM37.214 26.7317C37.2569 26.6557 37.3165 26.5916 37.3878 26.5446C37.4591 26.4976 37.5401 26.4691 37.6241 26.4615L39.7599 26.4846C39.8417 26.4853 39.9221 26.4631 39.9929 26.4203C40.0637 26.3775 40.1223 26.3157 40.1626 26.2412L48.0834 11.8028C48.1935 11.6052 48.2553 11.3823 48.2635 11.1537C48.2708 11.0595 48.2572 10.9649 48.2237 10.8771C48.1903 10.7894 48.1378 10.711 48.0705 10.6481C48.0033 10.5852 47.923 10.5395 47.836 10.5146C47.749 10.4897 47.6577 10.4863 47.5692 10.5046H41.3959C41.0048 10.5207 40.6258 10.6517 40.3024 10.8827C39.9442 11.1054 39.6474 11.4219 39.4413 11.8012L33.7326 22.1868C33.5269 22.5669 33.2302 22.8843 32.8718 23.1077C32.5495 23.3392 32.1712 23.4706 31.7807 23.4866C31.6922 23.505 31.6009 23.5016 31.5138 23.4768C31.4268 23.4519 31.3465 23.4062 31.2792 23.3433C31.2119 23.2804 31.1594 23.2019 31.126 23.1142C31.0925 23.0264 31.079 22.9317 31.0864 22.8375C31.0944 22.6089 31.1563 22.3859 31.2665 22.1884L36.9747 11.8028C37.0849 11.6053 37.1467 11.3823 37.1548 11.1537C37.1622 11.0595 37.1487 10.9648 37.1152 10.877C37.0817 10.7893 37.0293 10.7108 36.962 10.6479C36.8947 10.585 36.8144 10.5393 36.7274 10.5144C36.6403 10.4895 36.549 10.4862 36.4605 10.5046H31.9964C31.7499 10.5046 31.5079 10.5724 31.2944 10.7014C31.0809 10.8304 30.9036 11.0159 30.7801 11.2393C30.3251 12.0616 29.5883 13.3955 29.5883 13.3955C29.4912 13.5679 29.3487 13.7073 29.1779 13.797C29.0071 13.8866 28.8152 13.9228 28.6253 13.901L23.5981 13.9055C23.4905 13.8792 23.3776 13.8922 23.2779 13.9422C23.1782 13.9922 23.0978 14.0762 23.0498 14.1805L22.7552 14.6929C22.7346 14.7275 22.723 14.7672 22.7216 14.808C22.7203 14.8487 22.7292 14.8891 22.7475 14.9251C22.7658 14.9612 22.7928 14.9915 22.8258 15.0131C22.8588 15.0347 22.8967 15.0469 22.9356 15.0483L25.7712 15.0507C25.8499 15.0511 25.9272 15.0731 25.9953 15.1146C26.0633 15.1561 26.1198 15.2157 26.159 15.2872C26.1982 15.3588 26.2188 15.4399 26.2187 15.5224C26.2186 15.6049 26.1978 15.686 26.1584 15.7574L21.9068 23.4903C21.7967 23.6878 21.7348 23.9108 21.7267 24.1394C21.7267 24.5721 21.9668 24.7885 22.4469 24.7885H31.0868C31.5837 24.7885 31.8323 24.9958 31.8326 25.4104C31.8375 25.5769 31.7972 25.7415 31.7164 25.885C31.3063 26.6339 29.7846 29.4113 29.7064 29.548C29.5002 29.9268 29.3933 30.3561 29.3966 30.7922C29.3837 31.0492 29.4466 31.3042 29.5767 31.5225L32.9717 37.6382C33.0103 37.7107 33.0664 37.7714 33.1343 37.8141C33.2023 37.8568 33.2797 37.8801 33.3589 37.8816C33.6504 37.8816 33.9247 37.6473 34.1818 37.1786L38.7241 28.8701C38.7655 28.7945 38.8251 28.7316 38.897 28.6879C38.969 28.6441 39.0506 28.621 39.1338 28.621H41.8745C41.9792 28.6103 42.0799 28.5735 42.1682 28.5136C42.2566 28.4538 42.3299 28.3726 42.3821 28.277L42.5781 27.9054C42.678 27.7155 42.6125 27.5617 42.4321 27.5617H38.5751H38.5693L37.0344 27.5439C36.8899 27.5439 36.8408 27.4185 36.9221 27.2676L37.214 26.7317ZM189.78 14.3704H185.732C185.696 14.3702 185.66 14.3598 185.628 14.3405C185.596 14.3211 185.57 14.2933 185.552 14.26C185.534 14.2266 185.524 14.1888 185.524 14.1504C185.524 14.112 185.534 14.0742 185.552 14.041L186.792 11.8044C186.902 11.6069 186.964 11.384 186.972 11.1553C186.972 10.7226 186.732 10.5062 186.252 10.5062H168.973C168.586 10.5213 168.211 10.6529 167.893 10.8851C167.54 11.1112 167.248 11.4277 167.044 11.8048L160.617 23.4886C160.507 23.6863 160.445 23.9092 160.437 24.1377C160.429 24.2319 160.443 24.3266 160.476 24.4143C160.51 24.502 160.562 24.5804 160.63 24.6433C160.697 24.7062 160.777 24.7519 160.864 24.7768C160.951 24.8017 161.043 24.8051 161.131 24.7868H169.77C170.285 24.7868 170.542 24.9941 170.542 25.4088C170.536 25.5917 170.482 25.7694 170.387 25.9228C170.179 26.2909 170.072 26.712 170.077 27.1398C170.068 27.4019 170.121 27.6622 170.232 27.8972L173.651 33.9826C173.686 34.0604 173.741 34.1269 173.809 34.1746C173.877 34.2223 173.957 34.2495 174.039 34.2532C174.33 34.2532 174.605 34.0188 174.862 33.5501L180.461 23.3268C180.522 23.2156 180.61 23.1233 180.716 23.0592C180.822 22.9951 180.942 22.9614 181.064 22.9616H182.765C182.877 22.9519 182.985 22.9145 183.08 22.8525C183.175 22.7905 183.255 22.7057 183.313 22.605L183.628 22.0196C183.735 21.8225 183.662 21.6626 183.466 21.6622H181.719C181.684 21.6621 181.649 21.6522 181.619 21.6337C181.589 21.6152 181.563 21.5886 181.546 21.5566C181.528 21.5246 181.519 21.4884 181.519 21.4515C181.519 21.4147 181.529 21.3785 181.546 21.3466L183.219 18.293C183.329 18.0955 183.391 17.8725 183.399 17.6439C183.406 17.5497 183.392 17.4551 183.359 17.3673C183.326 17.2796 183.273 17.2012 183.206 17.1383C183.139 17.0754 183.058 17.0297 182.971 17.0048C182.884 16.9799 182.793 16.9765 182.704 16.9948H176.532C176.141 17.0109 175.763 17.142 175.44 17.3733C175.081 17.5963 174.784 17.9131 174.578 18.2926L172.441 22.1872C172.224 22.562 171.924 22.8778 171.568 23.1089C171.251 23.3413 170.877 23.4728 170.491 23.4878C170.01 23.4878 169.77 23.2715 169.77 22.8387C169.781 22.6066 169.852 22.3819 169.976 22.1896L174.965 13.1022C175.171 12.7227 175.467 12.4058 175.826 12.1829C176.149 11.9516 176.528 11.8204 176.919 11.8044C177.008 11.7856 177.099 11.7886 177.186 11.8133C177.274 11.838 177.354 11.8837 177.422 11.9467C177.489 12.0097 177.541 12.0884 177.575 12.1763C177.608 12.2643 177.621 12.3592 177.613 12.4535C177.605 12.6827 177.542 12.9059 177.429 13.1026L176.712 14.4008C176.603 14.5985 176.541 14.8214 176.533 15.0499C176.526 15.1441 176.539 15.2388 176.573 15.3266C176.606 15.4144 176.659 15.4928 176.726 15.5557C176.793 15.6186 176.874 15.6643 176.961 15.6892C177.048 15.714 177.139 15.7174 177.228 15.699H189.021C189.146 15.6856 189.267 15.6422 189.373 15.5722C189.48 15.5022 189.569 15.4075 189.635 15.2954L189.933 14.7732C190.06 14.5513 189.992 14.3704 189.78 14.3704ZM27.8822 7.71995H10.6025C10.2115 7.73607 9.8328 7.8674 9.50982 8.09886C9.15138 8.32197 8.85448 8.63891 8.64827 9.01855L7.827 10.5082C7.805 10.548 7.79337 10.5931 7.79326 10.639C7.79315 10.685 7.80457 10.7302 7.82638 10.77C7.84819 10.8099 7.87962 10.843 7.91751 10.8661C7.9554 10.8893 7.99844 10.9016 8.04229 10.9018H12.1417C12.3818 10.9018 12.4646 11.1046 12.3268 11.359L11.8373 12.2624C11.7656 12.3896 11.6663 12.4972 11.5474 12.5767C11.4285 12.6561 11.2934 12.7051 11.1531 12.7196H1.14721C1.02171 12.7327 0.900826 12.7761 0.794108 12.8465C0.68739 12.9169 0.597766 13.0124 0.532321 13.1253L0.0653439 13.9598C-0.0604998 14.1846 0.0107471 14.3655 0.224488 14.3655H5.25204C5.29802 14.3656 5.34316 14.3784 5.38291 14.4026C5.42266 14.4268 5.45559 14.4616 5.47839 14.5034C5.50118 14.5452 5.51302 14.5926 5.51271 14.6408C5.5124 14.689 5.49995 14.7362 5.47662 14.7777L0.672491 23.4903C0.562405 23.6878 0.500559 23.9108 0.492438 24.1394C0.492438 24.5721 0.732509 24.7885 1.21265 24.7885H18.492C18.8745 24.7694 19.2442 24.6382 19.5591 24.4099C19.9176 24.1868 20.2145 23.8699 20.4207 23.4903L23.2748 18.2974C23.3991 18.1051 23.4703 17.8804 23.4804 17.6483C23.4804 17.2156 23.2406 16.9992 22.761 16.9992H16.5896C16.2024 17.0142 15.8276 17.1459 15.51 17.3786C15.1539 17.6095 14.8545 17.925 14.6361 18.2995L12.4995 22.1941C12.2931 22.5738 11.9961 22.8907 11.6375 23.1138C11.3146 23.3452 10.9358 23.4764 10.5448 23.4923C10.4563 23.5111 10.3648 23.5081 10.2776 23.4834C10.1904 23.4587 10.1099 23.413 10.0425 23.35C9.97508 23.287 9.92264 23.2083 9.88932 23.1204C9.856 23.0324 9.84273 22.9375 9.85056 22.8432C9.85861 22.6141 9.92174 22.3908 10.0341 22.1941L16.5714 10.3184C16.7893 9.94388 17.0883 9.6284 17.4442 9.39747C17.7613 9.16487 18.1357 9.03316 18.5226 9.01815C18.611 8.99983 18.7023 9.00326 18.7893 9.02816C18.8763 9.05306 18.9566 9.09876 19.0239 9.16166C19.0912 9.22457 19.1436 9.30297 19.1771 9.39069C19.2106 9.47842 19.2242 9.57308 19.2168 9.66725C19.2087 9.89584 19.1468 10.1188 19.0368 10.3163L18.3166 11.6145C18.2064 11.8121 18.1445 12.035 18.1365 12.2637C18.1365 12.6964 18.3764 12.9128 18.8563 12.9128H25.0277C25.4102 12.8937 25.78 12.7626 26.0949 12.5342C26.4533 12.3112 26.7503 11.9942 26.9564 11.6145L28.3964 9.01815C28.5065 8.82059 28.5683 8.59764 28.5765 8.36905C28.5839 8.27486 28.5704 8.18015 28.5369 8.09239C28.5035 8.00462 28.451 7.92619 28.3837 7.86326C28.3164 7.80034 28.2361 7.75464 28.1491 7.72977C28.062 7.70491 27.9707 7.70154 27.8822 7.71995Z" fill="white"/>
</g>
<defs>
<clipPath id="clip0_13_130">
<rect width="190" height="37.729" fill="white" transform="translate(0 0.152649)"/>
</clipPath>
</defs>
</svg>
