<?xml version="1.0" encoding="utf-8"?>
<!-- Generator: Adobe Illustrator 24.0.0, SVG Export Plug-In . SVG Version: 6.00 Build 0)  -->
<svg version="1.1" id="Layer_1" xmlns="http://www.w3.org/2000/svg" xmlns:xlink="http://www.w3.org/1999/xlink" x="0px" y="0px"
	 viewBox="0 0 255.12 141.73" style="enable-background:new 0 0 255.12 141.73;" xml:space="preserve">
<style type="text/css">
	.st0{fill-rule:evenodd;clip-rule:evenodd;fill:#69B42D;}
	.st1{fill:#69B42D;}
</style>
<g>
	<path class="st0" d="M92.99,21.75c0.2-0.12,0.36-0.3,0.48-0.51l0.79-1.43c0.06-0.11,0.09-0.23,0.1-0.36c0-0.05,0-0.1-0.02-0.15
		c-0.02-0.05-0.05-0.09-0.08-0.13c-0.04-0.03-0.08-0.06-0.13-0.07c-0.05-0.01-0.1-0.02-0.15-0.01h-9.52
		c-0.22,0.01-0.42,0.08-0.6,0.21c-0.2,0.12-0.36,0.3-0.47,0.51l-3.54,6.44c-0.06,0.11-0.09,0.23-0.1,0.36c0,0.24,0.13,0.36,0.4,0.36
		h3.39c0.21-0.01,0.41-0.08,0.59-0.21c0.2-0.12,0.36-0.3,0.47-0.51l3.16-5.72c0.12-0.21,0.29-0.38,0.48-0.51
		c0.18-0.13,0.38-0.2,0.6-0.21c0.05-0.01,0.1-0.01,0.15,0.01c0.05,0.01,0.09,0.04,0.13,0.07c0.04,0.03,0.07,0.08,0.08,0.13
		c0.02,0.05,0.03,0.1,0.02,0.15c0,0.13-0.04,0.25-0.1,0.36l-0.4,0.72c-0.06,0.11-0.09,0.23-0.1,0.36c0,0.24,0.13,0.36,0.4,0.36h3.4
		C92.62,21.95,92.82,21.88,92.99,21.75z M112.28,19.46c0-0.24-0.13-0.36-0.4-0.36h-4.76c-0.28,0-0.42-0.11-0.42-0.34
		c0.09-0.27,0.2-0.52,0.34-0.77c0.11-0.21,0.17-0.45,0.17-0.69c0.01-0.14-0.02-0.28-0.09-0.4l-1.89-3.37
		c-0.02-0.04-0.05-0.07-0.08-0.1c-0.04-0.02-0.08-0.04-0.12-0.04c-0.16,0-0.31,0.13-0.54,0.55l-6.82,12.47
		c-0.02,0.06-0.03,0.13-0.03,0.2c0,0.24,0.13,0.36,0.4,0.36h3.4c0.21-0.01,0.42-0.08,0.6-0.21c0.2-0.13,0.36-0.3,0.48-0.51
		l3.13-5.72c0.12-0.21,0.28-0.38,0.48-0.51c0.17-0.13,0.38-0.2,0.59-0.21c0.26,0,0.4,0.12,0.4,0.36c-0.01,0.13-0.05,0.25-0.11,0.36
		l-3.13,5.72c-0.07,0.11-0.11,0.23-0.11,0.36c0,0.24,0.13,0.36,0.4,0.36h3.4c0.21-0.01,0.42-0.08,0.6-0.21
		c0.2-0.13,0.36-0.3,0.48-0.51l3.53-6.44C112.24,19.71,112.28,19.59,112.28,19.46L112.28,19.46z M100.84,18.06h0.61
		c0.11-0.01,0.21-0.05,0.3-0.11c0.09-0.06,0.17-0.15,0.22-0.24l0.59-1.1c0.11-0.2,0.04-0.36-0.14-0.36h-0.58
		c-0.02,0-0.03,0-0.05-0.01c-0.01-0.01-0.03-0.02-0.03-0.03c-0.01-0.01-0.01-0.03-0.01-0.05c0-0.02,0-0.03,0.01-0.05l0.35-0.64
		c0.06-0.11,0.09-0.23,0.1-0.36c0-0.05,0-0.1-0.02-0.15c-0.02-0.05-0.05-0.09-0.08-0.13c-0.04-0.03-0.08-0.06-0.13-0.07
		c-0.05-0.01-0.1-0.02-0.15-0.01h-3.4c-0.22,0.01-0.42,0.08-0.6,0.21c-0.2,0.12-0.36,0.3-0.48,0.51l-0.36,0.66
		c-0.02,0.04-0.05,0.07-0.09,0.09c-0.04,0.02-0.08,0.03-0.12,0.03h-5.38c-0.11,0.01-0.21,0.05-0.3,0.11
		c-0.09,0.06-0.17,0.15-0.22,0.24c0,0-0.3,0.55-0.35,0.65c-0.02,0.03-0.03,0.06-0.03,0.1c0,0.04,0.01,0.07,0.02,0.1
		c0.02,0.03,0.04,0.06,0.07,0.08c0.03,0.02,0.06,0.03,0.1,0.03h6.94c0.03,0,0.07,0.01,0.1,0.03c0.03,0.02,0.05,0.05,0.07,0.08
		c0.02,0.03,0.02,0.07,0.02,0.11s-0.02,0.07-0.04,0.1l-0.27,0.52c-0.03,0.06-0.08,0.11-0.13,0.15c-0.06,0.03-0.12,0.05-0.19,0.05
		h-1.05c-0.43,0-0.52,0.07-0.73,0.46c-0.21,0.39-3.95,7.23-3.95,7.23c-0.14,0.24-0.21,0.52-0.21,0.8c0,0.13,0.03,0.26,0.09,0.37
		l1.87,3.35c0.02,0.04,0.05,0.08,0.09,0.11c0.04,0.03,0.08,0.04,0.13,0.04c0.16,0,0.31-0.13,0.45-0.39l6.78-12.38
		c0.02-0.04,0.05-0.07,0.09-0.1C100.75,18.07,100.79,18.06,100.84,18.06L100.84,18.06z M123.99,19.46c0-0.24-0.13-0.36-0.4-0.36
		h-3.4c-0.21,0.01-0.42,0.08-0.6,0.21c-0.2,0.13-0.36,0.3-0.48,0.51l-3.13,5.72c-0.12,0.21-0.29,0.38-0.48,0.51
		c-0.18,0.13-0.38,0.2-0.6,0.21c-0.26,0-0.4-0.12-0.4-0.36c0.01-0.13,0.05-0.25,0.12-0.36l3.45-6.32c0.07-0.11,0.11-0.23,0.11-0.36
		c0-0.24-0.13-0.36-0.4-0.36h-3.51c-0.54,0-0.76,0.3-0.97,0.72c-0.13,0.27-0.05,0.39,0.16,0.39h1.62c0.14,0,0.2,0.12,0.11,0.27
		l-0.22,0.42c-0.04,0.08-0.1,0.14-0.17,0.19c-0.07,0.05-0.15,0.08-0.24,0.09H113c-0.13,0-0.26,0.04-0.37,0.11
		c-0.11,0.07-0.21,0.17-0.27,0.29l-2.9,5.29c-0.06,0.11-0.09,0.23-0.1,0.36c0,0.05,0,0.1,0.02,0.15c0.02,0.05,0.05,0.09,0.08,0.13
		c0.04,0.03,0.08,0.06,0.13,0.07c0.05,0.01,0.1,0.02,0.15,0.01h9.52c0.22-0.01,0.42-0.08,0.6-0.21c0.2-0.12,0.36-0.3,0.47-0.51
		l3.53-6.44C123.94,19.71,123.98,19.59,123.99,19.46L123.99,19.46z M79.9,24.47c0-0.05,0-0.1-0.02-0.15
		c-0.02-0.05-0.05-0.09-0.08-0.13c-0.04-0.03-0.08-0.06-0.13-0.07c-0.05-0.01-0.1-0.02-0.15-0.01h-3.4
		c-0.22,0.01-0.42,0.08-0.6,0.21c-0.2,0.12-0.36,0.3-0.47,0.51l-0.4,0.72c-0.11,0.21-0.28,0.38-0.47,0.51
		c-0.18,0.13-0.39,0.2-0.6,0.21c-0.05,0.01-0.1,0.01-0.15-0.01c-0.05-0.01-0.09-0.04-0.13-0.07c-0.04-0.04-0.07-0.08-0.08-0.13
		c-0.02-0.05-0.03-0.1-0.02-0.15c0-0.13,0.03-0.25,0.09-0.36l0.79-1.43c0.11-0.21,0.27-0.38,0.47-0.5c0.18-0.13,0.38-0.2,0.6-0.21
		h4.77c0.22-0.01,0.42-0.08,0.6-0.21c0.2-0.12,0.36-0.3,0.48-0.51l1.58-2.86c0.06-0.11,0.1-0.23,0.1-0.36c0-0.05,0-0.1-0.02-0.15
		c-0.02-0.05-0.05-0.09-0.08-0.13c-0.04-0.03-0.08-0.06-0.13-0.07c-0.05-0.01-0.1-0.02-0.15-0.01h-9.08c-0.09,0-0.18,0.03-0.26,0.07
		c-0.08,0.05-0.14,0.12-0.19,0.2l-0.16,0.3c-0.01,0.02-0.02,0.05-0.02,0.07c0,0.03,0.01,0.05,0.02,0.07
		c0.01,0.02,0.03,0.04,0.05,0.05c0.02,0.01,0.04,0.02,0.07,0.02h1.05c0.14,0,0.2,0.12,0.12,0.27l-0.33,0.64
		c-0.04,0.08-0.1,0.14-0.17,0.19c-0.07,0.05-0.15,0.08-0.23,0.09h-1.5c-0.2,0-0.41,0.06-0.58,0.16c-0.18,0.11-0.32,0.26-0.43,0.45
		l-2.51,4.57c-0.06,0.11-0.09,0.23-0.1,0.36c0,0.24,0.13,0.36,0.4,0.36h9.52c0.21-0.01,0.41-0.08,0.59-0.21
		c0.2-0.12,0.36-0.3,0.47-0.51l0.79-1.43C79.86,24.72,79.9,24.59,79.9,24.47L79.9,24.47z M75.21,21.95L76,20.53
		c0.12-0.21,0.29-0.38,0.48-0.5c0.18-0.13,0.38-0.2,0.6-0.21c0.05-0.01,0.1-0.01,0.15,0.01c0.05,0.01,0.09,0.04,0.13,0.07
		c0.04,0.03,0.07,0.08,0.08,0.13c0.02,0.05,0.03,0.1,0.02,0.15c0,0.13-0.04,0.25-0.1,0.36l-0.78,1.43
		c-0.12,0.21-0.29,0.38-0.48,0.51c-0.18,0.13-0.38,0.2-0.6,0.21c-0.26,0-0.4-0.12-0.4-0.36C75.12,22.19,75.15,22.06,75.21,21.95z
		 M70.94,19.46c0-0.05,0-0.1-0.02-0.15c-0.02-0.05-0.05-0.09-0.08-0.13c-0.04-0.03-0.08-0.06-0.13-0.07
		c-0.05-0.01-0.1-0.02-0.15-0.01H65.8c-0.28,0-0.43-0.11-0.43-0.34c0.09-0.27,0.2-0.52,0.34-0.77c0.11-0.21,0.17-0.45,0.17-0.69
		c0.01-0.14-0.02-0.28-0.09-0.4l-1.89-3.37c-0.02-0.04-0.05-0.07-0.09-0.1c-0.04-0.02-0.08-0.04-0.12-0.04
		c-0.15,0-0.3,0.13-0.44,0.39l-6.84,12.48c-0.06,0.11-0.09,0.23-0.1,0.36c0,0.24,0.13,0.36,0.4,0.36h9.52
		c0.21-0.01,0.41-0.08,0.59-0.21c0.2-0.12,0.36-0.3,0.47-0.51l3.54-6.44C70.9,19.71,70.94,19.59,70.94,19.46z M65.68,20.53
		l-2.75,5.01c-0.11,0.21-0.28,0.38-0.47,0.51c-0.18,0.13-0.39,0.2-0.6,0.21c-0.05,0.01-0.1,0.01-0.15,0
		c-0.05-0.01-0.09-0.04-0.13-0.07c-0.04-0.03-0.07-0.08-0.08-0.13c-0.02-0.05-0.03-0.1-0.02-0.15c0-0.13,0.04-0.25,0.1-0.36
		l2.75-5.01c0.12-0.21,0.28-0.38,0.48-0.51c0.17-0.13,0.38-0.2,0.59-0.21c0.05-0.01,0.1-0.01,0.15,0.01
		c0.05,0.01,0.09,0.04,0.13,0.07s0.07,0.08,0.08,0.13c0.02,0.05,0.03,0.1,0.02,0.15C65.78,20.3,65.75,20.42,65.68,20.53z
		 M53.14,28.04c0.02-0.04,0.06-0.08,0.1-0.1c0.04-0.03,0.08-0.04,0.13-0.05l1.18,0.01c0.05,0,0.09-0.01,0.13-0.04
		c0.04-0.02,0.07-0.06,0.09-0.1l4.37-7.96c0.06-0.11,0.09-0.23,0.1-0.36c0-0.05,0-0.1-0.02-0.15c-0.02-0.05-0.05-0.09-0.08-0.13
		c-0.04-0.03-0.08-0.06-0.13-0.07c-0.05-0.01-0.1-0.02-0.15-0.01h-3.4c-0.22,0.01-0.42,0.08-0.6,0.21c-0.2,0.12-0.36,0.3-0.47,0.51
		l-3.15,5.72c-0.11,0.21-0.28,0.38-0.47,0.51c-0.18,0.13-0.39,0.2-0.6,0.21c-0.05,0.01-0.1,0.01-0.15-0.01
		c-0.05-0.01-0.09-0.04-0.13-0.07c-0.04-0.03-0.07-0.08-0.08-0.13c-0.02-0.05-0.03-0.1-0.02-0.15c0-0.13,0.04-0.25,0.1-0.36
		l3.15-5.72c0.06-0.11,0.09-0.23,0.1-0.36c0-0.05,0-0.1-0.02-0.15c-0.02-0.05-0.05-0.09-0.08-0.13c-0.04-0.03-0.08-0.06-0.13-0.07
		c-0.05-0.01-0.1-0.02-0.15-0.01h-2.46c-0.14,0-0.27,0.04-0.39,0.11c-0.12,0.07-0.22,0.17-0.28,0.3c-0.25,0.45-0.66,1.19-0.66,1.19
		c-0.05,0.1-0.13,0.17-0.23,0.22c-0.09,0.05-0.2,0.07-0.3,0.06l-2.77,0c-0.06-0.01-0.12-0.01-0.18,0.02
		c-0.05,0.03-0.1,0.07-0.13,0.13l-0.16,0.28c-0.01,0.02-0.02,0.04-0.02,0.06c0,0.02,0,0.04,0.01,0.06c0.01,0.02,0.02,0.04,0.04,0.05
		c0.02,0.01,0.04,0.02,0.06,0.02l1.56,0c0.04,0,0.09,0.01,0.12,0.04c0.04,0.02,0.07,0.06,0.09,0.1c0.02,0.04,0.03,0.08,0.03,0.13
		c0,0.05-0.01,0.09-0.03,0.13l-2.34,4.26c-0.06,0.11-0.09,0.23-0.1,0.36c0,0.24,0.13,0.36,0.4,0.36h4.76c0.27,0,0.41,0.11,0.41,0.34
		c0,0.09-0.02,0.18-0.06,0.26c-0.23,0.41-1.06,1.94-1.11,2.02c-0.11,0.21-0.17,0.45-0.17,0.69c-0.01,0.14,0.03,0.28,0.1,0.4
		l1.87,3.37c0.02,0.04,0.05,0.07,0.09,0.1c0.04,0.02,0.08,0.04,0.12,0.04c0.16,0,0.31-0.13,0.45-0.39l2.5-4.58
		c0.02-0.04,0.06-0.08,0.1-0.1c0.04-0.02,0.08-0.04,0.13-0.04h1.51c0.06-0.01,0.11-0.03,0.16-0.06c0.05-0.03,0.09-0.08,0.12-0.13
		l0.11-0.2c0.06-0.1,0.02-0.19-0.08-0.19h-2.13h0l-0.85-0.01c-0.08,0-0.11-0.07-0.06-0.15L53.14,28.04z M137.23,21.23H135
		c-0.02,0-0.04-0.01-0.06-0.02c-0.02-0.01-0.03-0.03-0.04-0.04c-0.01-0.02-0.02-0.04-0.02-0.06c0-0.02,0.01-0.04,0.02-0.06
		l0.68-1.23c0.06-0.11,0.09-0.23,0.1-0.36c0-0.24-0.13-0.36-0.4-0.36h-9.52c-0.21,0.01-0.42,0.08-0.6,0.21
		c-0.19,0.12-0.36,0.3-0.47,0.51l-3.54,6.44c-0.06,0.11-0.09,0.23-0.1,0.36c0,0.05,0,0.1,0.02,0.15c0.02,0.05,0.05,0.09,0.08,0.13
		c0.04,0.03,0.08,0.06,0.13,0.07c0.05,0.01,0.1,0.02,0.15,0.01h4.76c0.28,0,0.43,0.11,0.43,0.34c0,0.1-0.03,0.2-0.09,0.28
		c-0.11,0.2-0.17,0.43-0.17,0.67c0,0.14,0.02,0.29,0.09,0.42l1.88,3.35c0.02,0.04,0.05,0.08,0.09,0.11
		c0.04,0.03,0.08,0.04,0.13,0.04c0.16,0,0.31-0.13,0.45-0.39l3.09-5.63c0.03-0.06,0.08-0.11,0.14-0.15s0.12-0.05,0.19-0.05h0.94
		c0.06-0.01,0.12-0.03,0.17-0.06c0.05-0.03,0.1-0.08,0.13-0.14l0.17-0.32c0.06-0.11,0.02-0.2-0.09-0.2h-0.96
		c-0.02,0-0.04-0.01-0.06-0.02c-0.02-0.01-0.03-0.02-0.04-0.04c-0.01-0.02-0.01-0.04-0.01-0.06c0-0.02,0.01-0.04,0.01-0.06
		l0.92-1.68c0.06-0.11,0.09-0.23,0.1-0.36c0-0.05,0-0.1-0.02-0.15c-0.02-0.05-0.05-0.09-0.08-0.13s-0.08-0.06-0.13-0.07
		c-0.05-0.01-0.1-0.02-0.15-0.01h-3.4c-0.22,0.01-0.42,0.08-0.6,0.21c-0.2,0.12-0.36,0.3-0.48,0.51l-1.18,2.15
		c-0.12,0.21-0.28,0.38-0.48,0.51c-0.17,0.13-0.38,0.2-0.59,0.21c-0.27,0-0.4-0.12-0.4-0.36c0.01-0.13,0.05-0.25,0.11-0.36
		l2.75-5.01c0.11-0.21,0.28-0.38,0.47-0.51c0.18-0.13,0.39-0.2,0.6-0.21c0.05-0.01,0.1-0.01,0.15,0c0.05,0.01,0.09,0.04,0.13,0.07
		c0.04,0.03,0.07,0.08,0.08,0.13c0.02,0.05,0.03,0.1,0.02,0.15c0,0.13-0.04,0.25-0.1,0.36l-0.4,0.72c-0.06,0.11-0.09,0.23-0.1,0.36
		c0,0.05,0,0.1,0.02,0.15c0.02,0.05,0.05,0.09,0.08,0.13s0.08,0.06,0.13,0.07c0.05,0.01,0.1,0.02,0.15,0.01h6.5
		c0.07-0.01,0.14-0.03,0.19-0.07c0.06-0.04,0.11-0.09,0.14-0.15l0.16-0.29C137.38,21.33,137.35,21.23,137.23,21.23z M48,17.57h-9.52
		c-0.22,0.01-0.42,0.08-0.6,0.21c-0.2,0.12-0.36,0.3-0.47,0.51l-0.45,0.82c-0.01,0.02-0.02,0.05-0.02,0.07
		c0,0.03,0.01,0.05,0.02,0.07c0.01,0.02,0.03,0.04,0.05,0.05c0.02,0.01,0.04,0.02,0.07,0.02h2.26c0.13,0,0.18,0.11,0.1,0.25
		l-0.27,0.5c-0.04,0.07-0.09,0.13-0.16,0.17c-0.07,0.04-0.14,0.07-0.22,0.08h-5.51c-0.07,0.01-0.14,0.03-0.19,0.07
		c-0.06,0.04-0.11,0.09-0.14,0.15L32.67,21c-0.07,0.12-0.03,0.22,0.09,0.22h2.77c0.03,0,0.05,0.01,0.07,0.02
		c0.02,0.01,0.04,0.03,0.05,0.06c0.01,0.02,0.02,0.05,0.02,0.08c0,0.03-0.01,0.05-0.02,0.08L33,26.26c-0.06,0.11-0.09,0.23-0.1,0.36
		c0,0.24,0.13,0.36,0.4,0.36h9.52c0.21-0.01,0.41-0.08,0.59-0.21c0.2-0.12,0.36-0.3,0.47-0.51l1.57-2.86
		c0.07-0.11,0.11-0.23,0.11-0.36c0-0.24-0.13-0.36-0.4-0.36h-3.4c-0.21,0.01-0.42,0.08-0.6,0.21c-0.2,0.13-0.36,0.3-0.48,0.51
		l-1.18,2.15c-0.11,0.21-0.28,0.38-0.48,0.51c-0.18,0.13-0.39,0.2-0.6,0.21c-0.05,0.01-0.1,0.01-0.15,0
		c-0.05-0.01-0.09-0.04-0.13-0.07c-0.04-0.03-0.07-0.08-0.08-0.13c-0.02-0.05-0.03-0.1-0.02-0.15c0-0.13,0.04-0.25,0.1-0.36
		l3.6-6.55c0.12-0.21,0.28-0.38,0.48-0.51c0.17-0.13,0.38-0.2,0.59-0.21c0.05-0.01,0.1-0.01,0.15,0.01
		c0.05,0.01,0.09,0.04,0.13,0.07c0.04,0.03,0.07,0.08,0.08,0.13c0.02,0.05,0.03,0.1,0.02,0.15c0,0.13-0.04,0.25-0.1,0.36l-0.4,0.72
		c-0.06,0.11-0.09,0.23-0.1,0.36c0,0.24,0.13,0.36,0.4,0.36h3.4c0.21-0.01,0.41-0.08,0.59-0.21c0.2-0.12,0.36-0.3,0.47-0.51
		l0.79-1.43c0.06-0.11,0.09-0.23,0.1-0.36c0-0.05,0-0.1-0.02-0.15c-0.02-0.05-0.05-0.09-0.08-0.13c-0.04-0.03-0.08-0.06-0.13-0.07
		C48.1,17.56,48.05,17.56,48,17.57z"/>
</g>
<path class="st0" d="M146.02,31.2V14.53c0-0.09,0.08-0.17,0.17-0.17h0.66c0.09,0,0.17,0.08,0.17,0.17V31.2
	c0,0.09-0.08,0.17-0.17,0.17h-0.66C146.09,31.37,146.02,31.3,146.02,31.2z"/>
<g>
	<path class="st1" d="M163.9,18.6c-0.04-0.04-0.12-0.11-0.31-0.21c-0.16-0.09-0.35-0.17-0.59-0.24c-0.24-0.08-0.52-0.14-0.84-0.2
		c-0.32-0.05-0.68-0.08-1.07-0.08c-0.71,0-1.36,0.11-1.94,0.33s-1.07,0.53-1.47,0.94c-0.41,0.41-0.72,0.91-0.94,1.49
		c-0.22,0.59-0.33,1.26-0.33,2c0,0.71,0.11,1.36,0.31,1.92c0.21,0.56,0.51,1.04,0.9,1.43c0.39,0.39,0.87,0.69,1.44,0.89
		c0.57,0.21,1.22,0.31,1.94,0.31c0.25,0,0.5-0.01,0.74-0.04c0.24-0.02,0.48-0.06,0.73-0.1c0.24-0.05,0.47-0.1,0.7-0.17
		c0.22-0.06,0.41-0.13,0.56-0.19c0.12-0.05,0.21-0.11,0.24-0.19c0.04-0.09,0.06-0.2,0.06-0.32v-3.68c0-0.08-0.01-0.15-0.03-0.21
		c-0.02-0.06-0.04-0.11-0.08-0.15c-0.03-0.04-0.07-0.07-0.11-0.09c-0.04-0.02-0.1-0.03-0.15-0.03h-3.12c-0.01,0-0.03,0-0.04,0.01
		c-0.01,0.01-0.03,0.03-0.05,0.07c-0.02,0.04-0.04,0.11-0.04,0.18c-0.01,0.08-0.02,0.19-0.02,0.32c0,0.3,0.03,0.43,0.06,0.49
		c0.04,0.09,0.07,0.09,0.09,0.09h1.88v2.34l-0.07,0.04c-0.18,0.1-0.39,0.18-0.6,0.23c-0.66,0.15-1.32,0.07-1.87-0.14
		c-0.37-0.15-0.69-0.36-0.96-0.65c-0.26-0.28-0.47-0.64-0.62-1.05c-0.14-0.41-0.22-0.9-0.22-1.44c0-0.5,0.07-0.95,0.21-1.36
		c0.14-0.41,0.35-0.77,0.62-1.06c0.27-0.29,0.59-0.53,0.97-0.69c0.38-0.16,0.8-0.24,1.26-0.24c0.43,0,0.81,0.04,1.14,0.13
		c0.32,0.09,0.6,0.18,0.84,0.29c0.23,0.1,0.42,0.2,0.57,0.29c0.17,0.11,0.23,0.11,0.23,0.11c0.02,0,0.03-0.01,0.03-0.01
		c0,0,0.02-0.01,0.04-0.07c0.02-0.05,0.03-0.12,0.04-0.21c0.01-0.09,0.02-0.21,0.02-0.34c0-0.23-0.01-0.4-0.04-0.51
		C163.99,18.73,163.95,18.65,163.9,18.6z"/>
	<path class="st1" d="M171.06,21.09c-0.23-0.26-0.53-0.47-0.89-0.62c-0.36-0.15-0.81-0.23-1.32-0.23c-0.49,0-0.93,0.08-1.31,0.24
		c-0.38,0.16-0.71,0.39-0.98,0.69c-0.27,0.3-0.48,0.68-0.62,1.11c-0.14,0.44-0.22,0.94-0.22,1.49c0,0.58,0.07,1.09,0.21,1.52
		c0.13,0.42,0.34,0.78,0.61,1.05c0.27,0.27,0.61,0.48,1.02,0.62c0.41,0.14,0.9,0.21,1.45,0.21c0.3,0,0.6-0.02,0.87-0.06
		c0.27-0.04,0.51-0.09,0.72-0.14c0.2-0.05,0.38-0.11,0.51-0.16c0.17-0.07,0.21-0.1,0.21-0.11c0.02-0.02,0.04-0.05,0.06-0.08
		c0.01-0.02,0.02-0.06,0.03-0.1c0.01-0.05,0.02-0.11,0.02-0.17c0-0.07,0.01-0.16,0.01-0.26c0-0.11,0-0.21-0.01-0.28
		c-0.01-0.08-0.02-0.13-0.03-0.14c-0.01-0.03-0.02-0.03-0.02-0.03c-0.01-0.01-0.08-0.03-0.27,0.05c-0.12,0.05-0.26,0.1-0.44,0.15
		c-0.18,0.06-0.38,0.11-0.63,0.15c-0.25,0.05-0.53,0.07-0.85,0.07c-0.33,0-0.6-0.04-0.84-0.13c-0.24-0.09-0.44-0.22-0.59-0.39
		c-0.15-0.17-0.27-0.38-0.33-0.61c-0.07-0.23-0.1-0.49-0.1-0.78v-0.13h4c0.14,0,0.24-0.04,0.31-0.12c0.08-0.08,0.11-0.22,0.11-0.4
		v-0.29c0-0.43-0.06-0.84-0.17-1.21C171.46,21.67,171.29,21.36,171.06,21.09z M170.24,23.14h-2.94l0.01-0.13
		c0.01-0.23,0.05-0.46,0.11-0.66c0.06-0.21,0.16-0.4,0.28-0.55c0.12-0.16,0.28-0.29,0.46-0.38c0.19-0.09,0.41-0.14,0.65-0.14
		c0.49,0,0.86,0.16,1.1,0.48c0.23,0.31,0.34,0.74,0.33,1.27L170.24,23.14z"/>
	<path class="st1" d="M177.99,25.29c-0.01-0.06-0.03-0.07-0.03-0.07c-0.03,0-0.08,0-0.18,0.08c-0.09,0.08-0.21,0.16-0.34,0.25
		c-0.14,0.1-0.31,0.18-0.49,0.26c-0.38,0.16-0.98,0.17-1.38-0.02c-0.2-0.1-0.37-0.24-0.51-0.44c-0.13-0.19-0.23-0.42-0.29-0.7
		c-0.06-0.27-0.1-0.58-0.1-0.94c0-0.72,0.13-1.27,0.39-1.65c0.27-0.39,0.67-0.59,1.17-0.59c0.25,0,0.47,0.04,0.66,0.11
		c0.18,0.07,0.34,0.15,0.47,0.23c0.13,0.08,0.24,0.16,0.33,0.23c0.07,0.05,0.13,0.08,0.18,0.08c0.02,0,0.05-0.04,0.07-0.09
		c0.03-0.07,0.06-0.21,0.06-0.53c0-0.12,0-0.21-0.01-0.29c-0.01-0.08-0.01-0.14-0.03-0.2c-0.01-0.05-0.03-0.08-0.03-0.1
		c-0.01-0.02-0.04-0.05-0.09-0.11c-0.03-0.03-0.1-0.08-0.24-0.17c-0.12-0.07-0.26-0.13-0.41-0.18c-0.15-0.05-0.32-0.1-0.5-0.13
		c-0.17-0.03-0.35-0.05-0.54-0.05c-0.45,0-0.87,0.07-1.24,0.21c-0.37,0.14-0.7,0.36-0.97,0.65c-0.27,0.29-0.49,0.66-0.64,1.11
		c-0.15,0.45-0.23,0.99-0.23,1.61c0,0.54,0.06,1.02,0.19,1.44c0.13,0.41,0.31,0.76,0.56,1.04c0.24,0.28,0.55,0.5,0.91,0.64
		c0.36,0.15,0.79,0.22,1.26,0.22c0.21,0,0.42-0.02,0.62-0.06c0.2-0.04,0.39-0.09,0.56-0.14c0.17-0.06,0.32-0.13,0.45-0.2
		c0.13-0.07,0.22-0.14,0.27-0.18c0.06-0.06,0.08-0.09,0.08-0.1c0.01-0.02,0.02-0.05,0.03-0.11c0.01-0.05,0.02-0.12,0.03-0.2
		c0.01-0.08,0.01-0.18,0.01-0.3c0-0.15,0-0.28-0.01-0.38C178.02,25.42,178.01,25.34,177.99,25.29z"/>
	<path class="st1" d="M185.12,26.54l-2.21-3.41l1.93-2.19c0.06-0.08,0.11-0.16,0.14-0.23c0.03-0.06,0.04-0.12,0.04-0.18
		c0-0.03-0.01-0.04-0.01-0.05c0-0.01-0.02-0.03-0.09-0.05c-0.07-0.02-0.15-0.04-0.27-0.05c-0.25-0.03-0.63-0.02-0.87,0
		c-0.11,0.01-0.2,0.03-0.27,0.05c-0.06,0.02-0.11,0.04-0.14,0.07c-0.04,0.04-0.08,0.08-0.11,0.13l-1.99,2.67l2.22,3.52
		c0.03,0.06,0.06,0.09,0.09,0.12c0.03,0.03,0.07,0.05,0.13,0.06c0.07,0.02,0.16,0.03,0.28,0.04c0.12,0.01,0.27,0.01,0.47,0.01
		c0.19,0,0.34-0.01,0.45-0.02c0.11-0.01,0.2-0.03,0.26-0.05c0.06-0.02,0.08-0.04,0.08-0.04c0-0.01,0.01-0.02,0.01-0.05
		c0-0.04-0.01-0.09-0.03-0.14C185.21,26.7,185.17,26.63,185.12,26.54z"/>
	<path class="st1" d="M181.03,17.4c-0.06-0.02-0.14-0.04-0.25-0.05c-0.11-0.01-0.25-0.02-0.42-0.02c-0.18,0-0.31,0.01-0.42,0.02
		c-0.1,0.01-0.19,0.03-0.25,0.05c-0.06,0.02-0.08,0.05-0.09,0.05c-0.01,0.02-0.02,0.03-0.02,0.05v9.4c0,0.02,0.01,0.04,0.01,0.04
		c0.01,0.01,0.03,0.03,0.09,0.05c0.06,0.02,0.14,0.04,0.25,0.05c0.22,0.02,0.63,0.02,0.85,0c0.11-0.01,0.19-0.03,0.25-0.05
		c0.06-0.02,0.08-0.04,0.09-0.05c0.01-0.01,0.01-0.03,0.01-0.05v-9.4c0-0.02-0.01-0.04-0.02-0.05
		C181.12,17.44,181.09,17.42,181.03,17.4z"/>
	<path class="st1" d="M191.62,21.12c-0.26-0.28-0.59-0.5-0.99-0.65c-0.4-0.15-0.89-0.22-1.44-0.22c-0.57,0-1.07,0.09-1.49,0.26
		c-0.42,0.17-0.77,0.41-1.04,0.71c-0.28,0.31-0.49,0.68-0.63,1.11c-0.14,0.43-0.21,0.92-0.21,1.45c0,0.55,0.07,1.04,0.19,1.46
		c0.13,0.42,0.32,0.77,0.59,1.06c0.26,0.28,0.6,0.5,1,0.65c0.4,0.15,0.88,0.23,1.44,0.23c0.57,0,1.07-0.09,1.49-0.25
		c0.42-0.17,0.77-0.41,1.05-0.72c0.28-0.31,0.49-0.68,0.62-1.11c0.14-0.43,0.21-0.92,0.21-1.45c0-0.55-0.07-1.05-0.19-1.47
		C192.07,21.76,191.88,21.4,191.62,21.12z M190.7,24.65c-0.06,0.28-0.17,0.52-0.3,0.72c-0.14,0.2-0.32,0.36-0.54,0.47
		c-0.22,0.11-0.47,0.16-0.76,0.16c-0.31,0-0.58-0.06-0.8-0.18c-0.22-0.12-0.4-0.29-0.52-0.5c-0.12-0.2-0.21-0.45-0.27-0.73
		c-0.05-0.27-0.08-0.57-0.08-0.89c0-0.35,0.03-0.66,0.1-0.93c0.07-0.28,0.17-0.52,0.31-0.72c0.14-0.2,0.32-0.36,0.54-0.47
		c0.21-0.11,0.47-0.16,0.75-0.16c0.32,0,0.59,0.06,0.81,0.18c0.22,0.12,0.39,0.29,0.52,0.5c0.13,0.21,0.22,0.45,0.27,0.73
		c0.05,0.27,0.08,0.57,0.08,0.89C190.79,24.07,190.76,24.38,190.7,24.65z"/>
	<path class="st1" d="M203.58,25.13c-0.01-0.04-0.02-0.05-0.03-0.05c0,0-0.01-0.01-0.04-0.01c-0.01,0-0.06,0-0.19,0.09
		c-0.12,0.08-0.27,0.17-0.44,0.26c-0.18,0.1-0.4,0.19-0.65,0.27c-0.25,0.08-0.56,0.12-0.9,0.12c-0.38,0-0.73-0.07-1.04-0.2
		c-0.31-0.13-0.58-0.34-0.8-0.61c-0.22-0.27-0.39-0.62-0.5-1.03c-0.12-0.41-0.17-0.89-0.17-1.44c0-0.51,0.05-0.97,0.16-1.37
		c0.11-0.41,0.27-0.76,0.48-1.05c0.21-0.29,0.47-0.52,0.78-0.68c0.31-0.16,0.66-0.24,1.04-0.24c0.35,0,0.65,0.04,0.9,0.13
		c0.25,0.09,0.46,0.18,0.64,0.29c0.18,0.11,0.32,0.2,0.44,0.29c0.12,0.09,0.18,0.1,0.2,0.1c0.01,0,0.02,0,0.03-0.01
		c0.01-0.01,0.03-0.03,0.05-0.09c0.02-0.05,0.03-0.12,0.04-0.21c0.01-0.1,0.01-0.21,0.01-0.35c0-0.13,0-0.24-0.01-0.33
		c-0.01-0.08-0.02-0.16-0.03-0.22c-0.01-0.05-0.03-0.1-0.04-0.13c-0.01-0.02-0.04-0.06-0.11-0.13c-0.06-0.06-0.16-0.13-0.31-0.21
		c-0.15-0.09-0.33-0.16-0.53-0.23c-0.19-0.07-0.41-0.12-0.64-0.16c-0.23-0.04-0.47-0.06-0.72-0.06c-0.61,0-1.18,0.1-1.69,0.31
		c-0.51,0.21-0.95,0.51-1.31,0.91c-0.36,0.4-0.65,0.9-0.85,1.49c-0.2,0.59-0.31,1.28-0.31,2.05c0,0.75,0.09,1.42,0.28,1.99
		c0.18,0.56,0.45,1.04,0.79,1.41c0.34,0.37,0.76,0.66,1.25,0.84c0.49,0.19,1.05,0.28,1.67,0.28c0.31,0,0.61-0.03,0.88-0.08
		c0.27-0.05,0.51-0.12,0.72-0.19c0.21-0.08,0.39-0.16,0.53-0.24c0.17-0.1,0.25-0.16,0.27-0.19c0.06-0.06,0.08-0.1,0.1-0.12
		c0.02-0.03,0.03-0.07,0.05-0.12c0.01-0.05,0.02-0.12,0.03-0.2c0.01-0.08,0.01-0.18,0.01-0.29c0-0.17,0-0.3-0.01-0.4
		C203.6,25.25,203.59,25.18,203.58,25.13z"/>
	<path class="st1" d="M206.56,17.4c-0.06-0.02-0.14-0.04-0.25-0.05c-0.11-0.01-0.25-0.02-0.42-0.02c-0.18,0-0.31,0.01-0.42,0.02
		c-0.1,0.01-0.19,0.03-0.25,0.05c-0.06,0.02-0.08,0.05-0.09,0.05c-0.01,0.02-0.02,0.03-0.02,0.05v9.4c0,0.02,0.01,0.04,0.01,0.04
		c0.01,0.01,0.03,0.03,0.09,0.05c0.06,0.02,0.14,0.04,0.25,0.05c0.22,0.02,0.63,0.02,0.85,0c0.11-0.01,0.19-0.03,0.25-0.05
		c0.06-0.02,0.08-0.04,0.09-0.05c0.01-0.01,0.01-0.03,0.01-0.05v-9.4c0-0.02-0.01-0.04-0.02-0.05
		C206.64,17.44,206.62,17.42,206.56,17.4z"/>
	<path class="st1" d="M214.41,20.43c-0.06-0.02-0.14-0.04-0.24-0.05c-0.23-0.02-0.61-0.02-0.85,0c-0.11,0.01-0.19,0.03-0.25,0.05
		c-0.07,0.02-0.08,0.04-0.08,0.04c-0.01,0.02-0.02,0.03-0.02,0.05v4.28l-0.03,0.03c-0.27,0.33-0.53,0.58-0.76,0.75
		c-0.45,0.32-0.95,0.33-1.29,0.16c-0.15-0.08-0.28-0.19-0.38-0.33c-0.1-0.14-0.17-0.31-0.22-0.5c-0.04-0.19-0.07-0.45-0.07-0.79
		v-3.6c0-0.02,0-0.03-0.02-0.05c0,0-0.02-0.02-0.09-0.05c-0.06-0.02-0.14-0.04-0.25-0.05c-0.12-0.01-0.26-0.02-0.42-0.02
		c-0.16,0-0.3,0.01-0.42,0.02c-0.11,0.01-0.19,0.03-0.25,0.05c-0.07,0.02-0.08,0.04-0.08,0.04c-0.01,0.02-0.02,0.03-0.02,0.05v3.9
		c0,0.47,0.04,0.87,0.11,1.19c0.07,0.31,0.2,0.58,0.37,0.82c0.17,0.23,0.39,0.41,0.68,0.55c0.28,0.13,0.63,0.2,1.05,0.2
		c0.37,0,0.73-0.09,1.07-0.27c0.35-0.18,0.7-0.46,1.04-0.83l0.22-0.23v1.05c0,0.02,0,0.04,0.02,0.06c0,0.01,0.02,0.02,0.07,0.04
		c0.04,0.02,0.11,0.03,0.2,0.04c0.09,0.01,0.21,0.02,0.37,0.02c0.14,0,0.26-0.01,0.35-0.02c0.09-0.01,0.16-0.03,0.21-0.05
		c0.05-0.02,0.06-0.04,0.07-0.04c0.01-0.01,0.01-0.03,0.01-0.06v-6.37c0-0.02,0-0.03-0.02-0.05
		C214.48,20.47,214.46,20.45,214.41,20.43z"/>
	<path class="st1" d="M222.59,22.31c-0.09-0.41-0.24-0.77-0.44-1.08c-0.19-0.3-0.45-0.54-0.76-0.72c-0.31-0.18-0.69-0.27-1.14-0.27
		c-0.18,0-0.36,0.02-0.52,0.05c-0.16,0.03-0.32,0.08-0.47,0.15c-0.16,0.07-0.31,0.16-0.47,0.27c-0.16,0.11-0.32,0.25-0.47,0.4
		l-0.21,0.22V17.5c0-0.02-0.01-0.04-0.02-0.05c-0.01-0.01-0.03-0.03-0.09-0.05c-0.06-0.02-0.14-0.04-0.25-0.05
		c-0.11-0.01-0.25-0.02-0.42-0.02c-0.18,0-0.31,0.01-0.42,0.02c-0.1,0.01-0.19,0.03-0.25,0.05c-0.06,0.02-0.08,0.05-0.09,0.05
		c-0.01,0.02-0.02,0.03-0.02,0.05v9.4c0,0.03,0,0.05,0.01,0.06c0,0,0.02,0.02,0.07,0.04c0.05,0.02,0.12,0.03,0.2,0.04
		c0.18,0.02,0.51,0.02,0.71,0c0.09-0.01,0.16-0.02,0.21-0.04s0.07-0.04,0.08-0.05c0-0.01,0.01-0.02,0.01-0.06v-1.02l0.22,0.25
		c0.16,0.19,0.33,0.35,0.49,0.49c0.16,0.13,0.32,0.24,0.48,0.33c0.16,0.08,0.33,0.15,0.5,0.18c0.18,0.04,0.37,0.06,0.57,0.06
		c0.41,0,0.78-0.08,1.1-0.24c0.32-0.16,0.6-0.4,0.82-0.7c0.22-0.3,0.4-0.68,0.52-1.12c0.12-0.44,0.18-0.94,0.18-1.5
		C222.73,23.17,222.68,22.73,222.59,22.31z M221.04,24.51c-0.05,0.26-0.13,0.49-0.25,0.69c-0.11,0.21-0.26,0.37-0.44,0.5
		c-0.18,0.13-0.41,0.2-0.67,0.2c-0.28,0-0.55-0.09-0.8-0.28c-0.24-0.18-0.49-0.43-0.75-0.76l-0.03-0.03v-2.2l0.03-0.03
		c0.15-0.2,0.29-0.36,0.42-0.49c0.13-0.13,0.26-0.24,0.39-0.33c0.13-0.09,0.26-0.15,0.39-0.19c0.13-0.04,0.25-0.05,0.38-0.05
		c0.27,0,0.5,0.07,0.68,0.2c0.18,0.13,0.32,0.3,0.43,0.51c0.11,0.21,0.18,0.44,0.22,0.71c0.04,0.25,0.06,0.52,0.06,0.81
		C221.12,24.01,221.09,24.26,221.04,24.51z"/>
</g>
</svg>
